<svg height="512" viewBox="0 0 128 128" width="512" xmlns="http://www.w3.org/2000/svg" xmlns:xlink="http://www.w3.org/1999/xlink"><linearGradient id="a" gradientUnits="userSpaceOnUse" x1="108.015" x2="29.305" y1="107.953" y2="29.244"><stop offset="0" stop-color="#3ba9fd"/><stop offset="1" stop-color="#9adb07"/></linearGradient><path d="m100.96 61.22a22.126 22.126 0 0 0 -2.336.135l-2.115-6.375a1.75 1.75 0 0 0 -3.322 1.1l8.022 24.178a1.253 1.253 0 0 1 -2.378.789l-11-33.17a1.748 1.748 0 0 0 -1.512-1.192 1.73 1.73 0 0 0 -1.692.917l-19.876 37.148h-36.191a2.248 2.248 0 0 1 -2.06-3.144l17.36-40.06a1.75 1.75 0 0 0 0-1.394l-1.028-2.368 2.543-.43 4.242 9.8a1.749 1.749 0 1 0 3.211-1.39l-3.9-9.005 6.744-1.14a1.75 1.75 0 0 0 1.458-1.725 7.149 7.149 0 0 0 -7.141-7.141h-17.463a1.75 1.75 0 0 0 -1.75 1.75v9.247a1.749 1.749 0 0 0 1.75 1.75 1.8 1.8 0 0 0 .292-.024l6.453-1.091 1.072 2.466-9 20.777a22.285 22.285 0 1 0 11.613 37.472 1.75 1.75 0 0 0 -2.5-2.452 18.807 18.807 0 1 1 -10.551-31.711l-6.62 15.275a5.747 5.747 0 0 0 5.275 8.038h16.658a18.623 18.623 0 0 1 -.558 1.784 1.75 1.75 0 1 0 3.281 1.219 21.916 21.916 0 0 0 .872-3h16.987a1.75 1.75 0 0 0 1.543-.925l18.448-34.481 3.809 11.489a22.284 22.284 0 1 0 11.36-3.116zm-66.684-30.972h15.708a3.649 3.649 0 0 1 3.349 2.211l-13.345 2.255h-.023l-5.689.962zm66.684 72.042a18.779 18.779 0 0 1 -10.224-34.531l4.773 14.391a4.752 4.752 0 0 0 9.022-2.991l-4.774-14.388c.4-.025.8-.051 1.2-.051a18.785 18.785 0 1 1 0 37.57zm16.29-18.79a16.1 16.1 0 0 1 -1.685 7.213 1.75 1.75 0 1 1 -3.136-1.555 12.776 12.776 0 0 0 .315-10.627 1.75 1.75 0 1 1 3.223-1.367 16.15 16.15 0 0 1 1.283 6.336zm-102.813-2.154a12.782 12.782 0 0 0 2.729 10.275 1.75 1.75 0 0 1 -2.7 2.229 16.283 16.283 0 0 1 -3.479-13.1 1.75 1.75 0 1 1 3.449.6zm41.917-18.633 6.321 14.593a1.746 1.746 0 0 0 1.533 1.052h.072a1.748 1.748 0 0 0 1.543-.924l19.277-36.034a1.753 1.753 0 0 0 .118-1.377l-3.6-10.832a5.763 5.763 0 0 0 -5.488-3.981h-2.95v-2.5h2.95a8.29 8.29 0 0 1 7.87 5.681l6.665 20.088a1.75 1.75 0 1 0 3.322-1.1l-2.963-8.929h4.651l1.694 5.1a1.751 1.751 0 0 0 1.661 1.2h12.82a1.75 1.75 0 0 0 1.661-1.2l4.17-12.59a1.751 1.751 0 0 0 -1.661-2.3h-21.17a1.752 1.752 0 0 0 -1.662 2.3l1.325 3.988h-4.65l-2.543-7.662a11.786 11.786 0 0 0 -11.19-8.076h-4.7a1.749 1.749 0 0 0 -1.75 1.75v6a1.749 1.749 0 0 0 1.75 1.75h4.7a2.274 2.274 0 0 1 2.17 1.572l3.363 10.126-17.217 32.183-4.882-11.269a1.749 1.749 0 1 0 -3.21 1.391zm57.246-30.553-3.011 9.09h-10.296l-3.019-9.09zm-56.62 23.195a1.748 1.748 0 0 1 -.91 2.3 1.725 1.725 0 0 1 -.694.145 1.75 1.75 0 0 1 -1.606-1.055l-1.57-3.626a1.749 1.749 0 1 1 3.211-1.39zm-11.462-8.706a1.749 1.749 0 0 0 -1.606 1.051l-13.912 32.105a1.751 1.751 0 0 0 1.605 2.446h27.825a1.75 1.75 0 0 0 1.6-2.446l-13.907-32.105a1.749 1.749 0 0 0 -1.605-1.051zm-6.9 22.06a18.712 18.712 0 0 1 6.6 10.042h-10.947zm10.197 10.042a22.208 22.208 0 0 0 -8.763-13.339l5.466-12.612 11.246 25.95z" fill="url(#a)"/></svg>